<svg width="119" height="117" viewBox="0 0 119 117" fill="none" xmlns="http://www.w3.org/2000/svg">
<path d="M93.6794 1.00977L96.267 1.40289C96.8761 1.54916 97.5035 2.11599 97.5035 3.08508V22.5766C97.5035 23.2668 96.9723 23.8245 96.3173 23.8245H81.213C80.5581 23.8245 80.0269 23.2668 80.0269 22.5766V3.8439" fill="#ED64A6"/>
<path d="M93.6794 1.00977L96.267 1.40289C96.8761 1.54916 97.5035 2.11599 97.5035 3.08508V22.5766C97.5035 23.2668 96.9723 23.8245 96.3173 23.8245H81.213C80.5581 23.8245 80.0269 23.2668 80.0269 22.5766V3.8439" fill="#FED7E2"/>
<path d="M93.6794 1.00977L96.267 1.40289C96.8761 1.54916 97.5035 2.11599 97.5035 3.08508V22.5766C97.5035 23.2668 96.9723 23.8245 96.3173 23.8245H81.213C80.5581 23.8245 80.0269 23.2668 80.0269 22.5766V3.8439" stroke="#D53F8C" stroke-miterlimit="10"/>
<path d="M93.5786 22.8649H78.4743C77.8193 22.8649 77.2881 22.3072 77.2881 21.6169V2.88427C77.2881 2.21231 77.7873 1.66377 78.4239 1.63635L93.5282 1.00096C94.206 0.973528 94.7648 1.54035 94.7648 2.24888V21.6078C94.7648 22.298 94.2381 22.8649 93.5786 22.8649Z" fill="white" stroke="#D53F8C" stroke-miterlimit="10"/>
<path d="M41.1979 112.008L41.1979 112.008L41.1917 112.012C41.1551 112.035 41.1307 112.04 41.1051 112.04C41.0681 112.04 41.0165 112.023 40.9765 111.987C40.9432 111.957 40.922 111.918 40.922 111.86V97.1591L57.8823 101.775L41.1979 112.008Z" fill="#FED7E2" stroke="#D53F8C"/>
<path d="M15.2215 93.0995L4.05491 89.4329L15.0341 82.2731L15.2215 93.0995Z" fill="white" stroke="#D53F8C"/>
<path d="M109.077 114.882L115.438 108.634C116.789 107.299 117.554 105.489 117.554 103.605V90.4449C117.554 88.5341 116.043 86.9251 114.183 86.8519L110.368 86.6965V21.8361C110.368 19.9345 108.871 18.4032 107.025 18.426L96.4732 17.4844L29.4563 18.1838L109.077 114.882Z" fill="#FED7E2" stroke="#D53F8C" stroke-miterlimit="10"/>
<path d="M106.43 93.5532L102.175 93.3794V21.2052C102.175 19.1207 100.508 17.4477 98.4516 17.466L11.8238 18.2522C10.001 18.2705 8.52175 19.8658 8.52175 21.8269V89.5717L5.29754 89.4391C3.49308 89.3614 2.02295 90.879 2.02295 92.8309V106.535C2.02295 108.487 3.48392 110.142 5.29754 110.247L39.8387 112.158C41.7394 112.263 43.2873 110.727 43.2873 108.716V101.768L65.1378 102.814V109.868C65.1378 111.906 66.7361 113.634 68.7055 113.749L106.434 115.833C108.513 115.947 110.199 114.343 110.199 112.249V97.4935C110.194 95.4045 108.509 93.64 106.43 93.5532Z" fill="white" stroke="#D53F8C" stroke-miterlimit="10"/>
<path d="M58.0482 62.5328H48.7648C46.5986 62.5328 44.8445 60.814 44.8445 58.6884V33.9401C44.8445 32.875 45.7284 32.0156 46.8047 32.0156H60.0083C61.0983 32.0156 61.9685 32.8796 61.9685 33.9401V58.6793C61.9777 60.8049 60.2236 62.5328 58.0482 62.5328Z" fill="white" stroke="#D53F8C" stroke-miterlimit="10"/>
<path d="M111.023 92.9908L114.687 89.9189" stroke="#D53F8C" stroke-miterlimit="10" stroke-linecap="round"/>
<path d="M105.111 21.0635L107.859 21.2189" stroke="#D53F8C" stroke-miterlimit="10" stroke-linecap="round"/>
<path d="M32.6071 54.045C32.6071 54.7398 32.0438 55.302 31.3477 55.302H23.7909C23.0948 55.302 22.5315 54.7398 22.5315 54.045V46.4934C22.5315 45.7986 23.0948 45.2363 23.7909 45.2363H31.3477C32.0438 45.2363 32.6071 45.7986 32.6071 46.4934V54.045Z" fill="#D53F8C"/>
<path d="M26.2183 48.719C26.2183 48.8789 26.0901 49.0069 25.9344 49.0069H24.2169C24.0566 49.0069 23.933 48.8789 23.933 48.719V47.0048C23.933 46.8448 24.0612 46.7168 24.2169 46.7168H25.9344C26.0947 46.7168 26.2183 46.8448 26.2183 47.0048V48.719Z" fill="white"/>
<path d="M85.431 55.0274C85.431 55.7222 84.8677 56.2845 84.1715 56.2845H76.6148C75.9187 56.2845 75.3553 55.7222 75.3553 55.0274V47.4758C75.3553 46.781 75.9187 46.2188 76.6148 46.2188H84.1715C84.8677 46.2188 85.431 46.781 85.431 47.4758V55.0274Z" fill="#D53F8C"/>
<path d="M40 79L41.8072 79.9775C48.7952 83.7484 57.0161 84.0029 64.257 80.6733L67 79.4107" stroke="#D53F8C" stroke-width="3" stroke-miterlimit="10" stroke-linecap="round"/>
<path d="M78.9689 49.633C78.9689 49.793 78.8407 49.921 78.685 49.921H76.9675C76.8072 49.921 76.6836 49.793 76.6836 49.633V47.9188C76.6836 47.7589 76.8118 47.6309 76.9675 47.6309H78.685C78.8453 47.6309 78.9689 47.7589 78.9689 47.9188V49.633Z" fill="white"/>
<path opacity="0.43" d="M90.4597 67.1546H79.3765C75.7675 67.1546 72.2685 66.4232 69.4565 65.0838L62.0188 56.394C60.5716 54.7027 58.4603 53.6468 56.175 53.4593C54.3614 53.3131 52.447 53.3131 50.6334 53.4593C48.348 53.6422 46.2413 54.6981 44.7895 56.394L37.3518 65.0838C34.5398 66.4232 31.0408 67.1546 27.4319 67.1546H16.3487C8.42552 67.1546 2 61.0292 2 53.4776V38.507C2 30.9509 8.42552 24.8301 16.3487 24.8301H90.4505C98.3737 24.8301 104.799 30.9554 104.799 38.507V53.4776C104.808 61.0292 98.3828 67.1546 90.4597 67.1546Z" fill="#F687B3"/>
<path d="M90.4607 67.1546H79.3775C79.0752 67.1546 78.7775 67.15 78.4798 67.1409C74.0008 66.99 69.9476 65.5135 67.4195 63.3194L62.0474 56.5997C60.6001 54.785 58.4156 53.6376 56.0295 53.4548C54.312 53.3222 52.503 53.3222 50.7855 53.4548C48.404 53.6376 46.2194 54.785 44.7676 56.5997L39.3955 63.3194C36.8674 65.5135 32.8142 66.99 28.3351 67.1409C28.0375 67.15 27.7352 67.1546 27.4375 67.1546H16.3543C8.43114 67.1546 2.00562 61.0292 2.00562 53.4776V38.507C2.00562 30.9509 8.43114 24.8301 16.3543 24.8301H90.4561C98.3793 24.8301 104.805 30.9554 104.805 38.507V53.4776C104.809 61.0292 98.3838 67.1546 90.4607 67.1546Z" stroke="#D53F8C" stroke-width="3" stroke-miterlimit="10" stroke-linecap="round"/>
<path opacity="0.56" d="M26.7312 35.8327C25.8152 35.1562 24.5237 35.3527 23.8504 36.2624L15.1854 47.9646C14.5076 48.8788 14.7045 50.1679 15.6159 50.8399C15.9823 51.1096 16.4128 51.2421 16.8387 51.2421C17.4707 51.2421 18.0936 50.9541 18.4966 50.4056L27.1617 38.7034C27.8395 37.7983 27.6471 36.5092 26.7312 35.8327Z" fill="white"/>
<path opacity="0.56" d="M33.349 35.7281C32.6803 35.2344 31.7369 35.3761 31.2423 36.0435L24.9038 44.6053C24.4092 45.2727 24.5511 46.2143 25.2198 46.708C25.49 46.9091 25.8014 47.0006 26.1129 47.0006C26.5754 47.0006 27.0288 46.7903 27.3265 46.388L33.665 37.8262C34.1596 37.1634 34.0222 36.2217 33.349 35.7281Z" fill="white"/>
<path opacity="0.56" d="M85.4219 35.7281C84.7532 35.2344 83.8098 35.3761 83.3152 36.0435L76.9767 44.6053C76.482 45.2727 76.624 46.2143 77.2927 46.708C77.5629 46.9091 77.8743 47.0006 78.1858 47.0006C78.6483 47.0006 79.1017 46.7903 79.3994 46.388L85.7379 37.8262C86.2325 37.1634 86.0906 36.2217 85.4219 35.7281Z" fill="white"/>
<path opacity="0.56" d="M79.065 35.8327C78.1491 35.1562 76.8575 35.3527 76.1843 36.2624L67.5192 47.9646C66.8414 48.8788 67.0384 50.1679 67.9498 50.8399C68.3161 51.1096 68.7466 51.2421 69.1726 51.2421C69.8046 51.2421 70.4275 50.9541 70.8305 50.4056L79.4955 38.7034C80.1733 37.7983 79.9764 36.5092 79.065 35.8327Z" fill="white"/>
</svg>
